<?xml version="1.0" encoding="UTF-8" standalone="no"?>
<svg
   xmlns:dc="http://purl.org/dc/elements/1.1/"
   xmlns:cc="http://creativecommons.org/ns#"
   xmlns:rdf="http://www.w3.org/1999/02/22-rdf-syntax-ns#"
   xmlns:svg="http://www.w3.org/2000/svg"
   xmlns="http://www.w3.org/2000/svg"
   xmlns:xlink="http://www.w3.org/1999/xlink"
   xmlns:sodipodi="http://sodipodi.sourceforge.net/DTD/sodipodi-0.dtd"
   xmlns:inkscape="http://www.inkscape.org/namespaces/inkscape"
   width="768"
   height="768"
   id="svg2"
   version="1.1"
   inkscape:version="0.48.5 r10040"
   sodipodi:docname="plain_button.svg">
  <metadata
     id="metadata3061">
    <rdf:RDF>
      <cc:Work
         rdf:about="">
        <dc:format>image/svg+xml</dc:format>
        <dc:type
           rdf:resource="http://purl.org/dc/dcmitype/StillImage" />
        <dc:title></dc:title>
      </cc:Work>
    </rdf:RDF>
  </metadata>
  <defs
     id="defs4"><clipPath
   clipPathUnits="userSpaceOnUse"
   id="clipPathFlag">
  <rect
     id="rect3918"
     height="511"
     x="0.5"
     style="fill:#000000;fill-opacity:0.67000002;stroke:none"
     width="511"
     y="0.5"
     ry="57" />
</clipPath>
<linearGradient
   id="linearGradient3852"
   inkscape:collect="always">
  <stop
     id="stop3854"
     offset="0"
     style="stop-color:#dbe3db;stop-opacity:1;" />
  <stop
     id="stop3856"
     offset="1"
     style="stop-color:#dbe3db;stop-opacity:0;" />
</linearGradient>
<linearGradient
   inkscape:collect="always"
   xlink:href="#linearGradient3852"
   id="linearGradient3070"
   gradientUnits="userSpaceOnUse"
   x1="339.54913"
   y1="646.63617"
   x2="345.74551"
   y2="566.63617"
   gradientTransform="matrix(0.93191514,0,0,0.93191514,7.9467803,7.2318863)" />
<clipPath
   id="clipPath3882"
   clipPathUnits="userSpaceOnUse">
  <path
     sodipodi:type="inkscape:offset"
     inkscape:radius="11.844458"
     inkscape:original="M 243.75 118.0625 C 179.93919 118.0625 128.5625 169.43919 128.5625 233.25 L 128.5625 528.59375 C 128.5625 592.40456 179.93919 643.78125 243.75 643.78125 L 539.09375 643.78125 C 602.90456 643.78125 654.28125 592.40456 654.28125 528.59375 L 654.28125 233.25 C 654.28125 169.43919 602.90456 118.0625 539.09375 118.0625 L 243.75 118.0625 z "
     style="color:#000000;fill:none;stroke:none;stroke-width:20;marker:none;visibility:visible;display:inline;overflow:visible;enable-background:accumulate"
     id="path3884"
     d="m 243.75,106.21875 c -70.16845,0 -127.03125,56.8628 -127.03125,127.03125 l 0,295.34375 c 0,70.16845 56.8628,127.03125 127.03125,127.03125 l 295.34375,0 c 70.16845,0 127.03125,-56.8628 127.03125,-127.03125 l 0,-295.34375 c 0,-70.16845 -56.8628,-127.03125 -127.03125,-127.03125 l -295.34375,0 z" />
</clipPath>
<linearGradient
   id="linearGradient3852-0"
   inkscape:collect="always">
  <stop
     id="stop3854-6"
     offset="0"
     style="stop-color:#dbe3db;stop-opacity:1;" />
  <stop
     id="stop3856-1"
     offset="1"
     style="stop-color:#dbe3db;stop-opacity:0;" />
</linearGradient>
<linearGradient
   inkscape:collect="always"
   xlink:href="#linearGradient3852-0"
   id="linearGradient3070-5"
   gradientUnits="userSpaceOnUse"
   x1="339.54913"
   y1="646.63617"
   x2="345.74551"
   y2="566.63617"
   gradientTransform="matrix(0.93191514,0,0,0.93191514,7.9467803,7.2318863)" />
<linearGradient
   inkscape:collect="always"
   xlink:href="#linearGradient3852-0"
   id="linearGradient5122"
   gradientUnits="userSpaceOnUse"
   gradientTransform="matrix(1.1571075,0,0,1.3166846,-91.204261,-253.98784)"
   x1="342.1882"
   y1="705.75824"
   x2="358.07608"
   y2="523.40735" />
<linearGradient
   inkscape:collect="always"
   xlink:href="#linearGradient3852-0"
   id="linearGradient5125"
   gradientUnits="userSpaceOnUse"
   gradientTransform="matrix(0.95302723,0,0,0.86647129,11.575117,-4.501603)"
   x1="405.2634"
   y1="118.06474"
   x2="405.74554"
   y2="360.92188" />
<clipPath
   clipPathUnits="userSpaceOnUse"
   id="clipPath5712">
  <rect
     mask="none"
     inkscape:label="#rect4203"
     ry="64.777054"
     y="0"
     width="512"
     style="fill:none;display:inline"
     x="0"
     height="512"
     id="rect5714" />
</clipPath>
<filter
   inkscape:collect="always"
   id="filter5740">
  <feGaussianBlur
     inkscape:collect="always"
     stdDeviation="5.12"
     id="feGaussianBlur5742" />
</filter>
<clipPath
   clipPathUnits="userSpaceOnUse"
   id="clipPath5796">
  <rect
     inkscape:label="#rect4203"
     ry="57"
     y="0"
     width="512"
     style="fill:none;stroke:#00fa00;stroke-width:20;stroke-miterlimit:4;stroke-opacity:1;stroke-dasharray:none;display:inline"
     x="0"
     height="512"
     id="rect5798" />
</clipPath>
<filter
   inkscape:collect="always"
   id="filter5912">
  <feGaussianBlur
     inkscape:collect="always"
     stdDeviation="17.92"
     id="feGaussianBlur5914" />
</filter>

  &gt;
  </defs>
  <sodipodi:namedview
     id="base"
     pagecolor="#ffffff"
     bordercolor="#666666"
     borderopacity="1.0"
     inkscape:pageopacity="0.0"
     inkscape:pageshadow="2"
     inkscape:zoom="1"
     inkscape:cx="335.53226"
     inkscape:cy="384"
     inkscape:document-units="px"
     showgrid="false"
     inkscape:window-width="1600"
     inkscape:window-height="797"
     inkscape:window-x="-4"
     inkscape:window-y="-4"
     inkscape:window-maximized="1"
     inkscape:current-layer="svg2" />
  <g
     transform="translate(90,90)"
     style="display:inline"
     id="00"
     inkscape:label="00">
    <rect
       id="shadow"
       height="512"
       x="38"
       style="fill:#000000;fill-opacity:1;stroke:#a8a8a8;stroke-width:5;stroke-miterlimit:4;stroke-opacity:1;stroke-dasharray:none;display:inline;filter:url(#filter5912)"
       width="512"
       y="56"
       ry="57"
       inkscape:label="#rect4203" />
  </g>
  <g
     clip-path="url(#clipPathFlag)"
     transform="translate(128,128)"
     style="display:inline"
     inkscape:label="01"
     id="01">
    <rect
       inkscape:label="#rect4203"
       ry="57"
       y="0"
       width="512"
       style="fill:#0000ff;fill-opacity:1;stroke:none"
       x="0"
       height="512"
       id="mask" />
    <g
       inkscape:label="#g4461"
       clip-path="url(#clipPath4480)"
       id="flag"
       transform="matrix(0.7224893,0,0,0.7224893,-128,2.4115845e-6)">
      <rect
         id="rect149"
         style="font-size:12px;fill:#40a6ff;fill-opacity:1;fill-rule:evenodd;stroke-width:1pt"
         y="0"
         x="0"
         height="708.66101"
         width="1062.99" />
    </g>
  </g>
  <g
     transform="translate(0,38)"
     style="display:inline"
     inkscape:label="02"
     id="02">
    <path
       style="color:#000000;fill:url(#linearGradient5125);fill-opacity:1;fill-rule:nonzero;stroke:none;stroke-width:1.62399995;marker:none;visibility:visible;overflow:visible;enable-background:accumulate"
       d="m 214.21087,111.21099 c -45.24514,0.18809 -68.71568,7.73077 -64.09352,83.5526 l 2.8252,46.34456 c 47.4743,5.51239 56.66416,18.44506 104.35936,21.91413 68.07337,4.95126 67.93728,5.42092 130.56477,-14.38414 62.62753,-19.80506 5.82485,-65.24698 207.32205,-57.8201 4.60334,0.16968 17.3137,-3.05269 27.46187,-12.15043 5.5817,-46.52389 -2.78415,-69.14289 -66.93352,-68.87623 z"
       id="path3862-8"
       inkscape:connector-curvature="0"
       sodipodi:nodetypes="sscssscss" />
    <path
       sodipodi:nodetypes="cssscssccc"
       style="color:#000000;fill:url(#linearGradient5122);fill-opacity:1;fill-rule:nonzero;stroke:none;stroke-width:1.62399995;marker:none;visibility:visible;overflow:visible;enable-background:accumulate"
       d="m 531.03278,495.17335 c -31.60486,19.02245 -27.60116,31.26037 -37.91323,32.57276 -94.70417,12.0527 -145.97722,-0.72701 -165.79583,-12.06122 -59.58792,-34.07817 -68.46788,-13.01421 -100.22126,-16.5742 -20.11475,-2.25514 -59.24503,12.98404 -73.38763,44.34434 3.47222,27.60795 18.11064,32.09835 44.28127,31.98612 l 356.05526,-1.52684 c 69.69188,-0.29885 56.33547,-8.49265 65.54301,-56.03861 -14.77205,-21.67074 -13.15664,9.10903 -44.2237,-30.71666 z"
       id="path3079-9"
       inkscape:connector-curvature="0" />
    <rect
       clip-path="url(#clipPath5796)"
       transform="translate(128,90)"
       inkscape:label="#rect4203"
       ry="57"
       y="0"
       width="512"
       style="fill:none;stroke:#000000;stroke-width:20;stroke-miterlimit:4;stroke-opacity:1;stroke-dasharray:none;display:inline;filter:url(#filter5740)"
       x="0"
       height="512"
       id="rect5734" />
  </g>
  <path
     inkscape:connector-curvature="0"
     d="m 390.89285,225.03967 c -85.25441,0 -154.60965,69.35901 -154.60965,154.61342 0,85.25441 69.35524,154.61342 154.60965,154.61342 85.25441,0 154.61719,-69.35901 154.61719,-154.61342 0,-85.25441 -69.36278,-154.61342 -154.61719,-154.61342 z m 0,294.14224 c -76.93148,0 -139.52505,-62.59357 -139.52505,-139.52882 0,-76.93525 62.59357,-139.52882 139.52505,-139.52882 76.93902,0 139.53259,62.59357 139.53259,139.52882 0,76.93525 -62.59357,139.52882 -139.53259,139.52882 z m 44.48073,-55.24736 v 20.4698 c 0,0.85983 -0.70144,1.54995 -1.54618,1.54995 h -75.14395 c -0.85605,0 -1.54617,-0.69389 -1.54617,-1.54995 v -20.4698 c 0,-0.85606 0.69389,-1.54995 1.54617,-1.54995 h 21.6464 V 353.2852 h -21.8689 c -0.85605,0 -1.53863,-0.69389 -1.53863,-1.5424 v -20.93366 c 0,-0.85982 0.68635,-1.54617 1.53863,-1.54617 h 51.27257 c 0.85605,0 1.54617,0.69012 1.54617,1.54617 V 462.3846 h 22.54771 c 0.84474,0 1.54618,0.69389 1.54618,1.54995 z M 367.0818,291.03858 c 0,-13.01801 10.54791,-23.56969 23.5697,-23.56969 13.01424,0 23.56969,10.55168 23.56969,23.56969 0,13.01801 -10.55545,23.5697 -23.56969,23.5697 -13.02556,0 -23.5697,-10.55169 -23.5697,-23.5697 z"
     id="path3090"
     style="fill:#f2f2f2;stroke:#f2f2f2;stroke-width:3.77115107;stroke-opacity:1" />
</svg>
